<mxfile host="65bd71144e">
    <diagram id="3SG3KDCPsP9kCfmhuJG3" name="Page-1">
        <mxGraphModel dx="1117" dy="790" grid="1" gridSize="10" guides="1" tooltips="1" connect="1" arrows="1" fold="1" page="1" pageScale="1" pageWidth="827" pageHeight="1169" math="0" shadow="0">
            <root>
                <mxCell id="0"/>
                <mxCell id="1" parent="0"/>
                <mxCell id="2" value="Singleton" style="swimlane;fontStyle=1;align=center;verticalAlign=top;childLayout=stackLayout;horizontal=1;startSize=26;horizontalStack=0;resizeParent=1;resizeParentMax=0;resizeLast=0;collapsible=1;marginBottom=0;" parent="1" vertex="1">
                    <mxGeometry x="330" y="360" width="160" height="110" as="geometry"/>
                </mxCell>
                <mxCell id="3" value="- static singleton: Singleton&#10;" style="text;strokeColor=none;fillColor=none;align=left;verticalAlign=top;spacingLeft=4;spacingRight=4;overflow=hidden;rotatable=0;points=[[0,0.5],[1,0.5]];portConstraint=eastwest;" parent="2" vertex="1">
                    <mxGeometry y="26" width="160" height="26" as="geometry"/>
                </mxCell>
                <mxCell id="4" value="" style="line;strokeWidth=1;fillColor=none;align=left;verticalAlign=middle;spacingTop=-1;spacingLeft=3;spacingRight=3;rotatable=0;labelPosition=right;points=[];portConstraint=eastwest;" parent="2" vertex="1">
                    <mxGeometry y="52" width="160" height="8" as="geometry"/>
                </mxCell>
                <mxCell id="5" value="- constructor()&#10;+ getSingleton(): Singleton" style="text;strokeColor=none;fillColor=none;align=left;verticalAlign=top;spacingLeft=4;spacingRight=4;overflow=hidden;rotatable=0;points=[[0,0.5],[1,0.5]];portConstraint=eastwest;" parent="2" vertex="1">
                    <mxGeometry y="60" width="160" height="50" as="geometry"/>
                </mxCell>
                <mxCell id="7" value="" style="endArrow=block;endFill=0;endSize=12;html=1;exitX=1;exitY=0.5;exitDx=0;exitDy=0;entryX=0.994;entryY=0.127;entryDx=0;entryDy=0;entryPerimeter=0;" parent="2" source="3" target="2" edge="1">
                    <mxGeometry width="160" relative="1" as="geometry">
                        <mxPoint y="40" as="sourcePoint"/>
                        <mxPoint x="230" y="10" as="targetPoint"/>
                        <Array as="points">
                            <mxPoint x="230" y="39"/>
                            <mxPoint x="230" y="14"/>
                        </Array>
                    </mxGeometry>
                </mxCell>
            </root>
        </mxGraphModel>
    </diagram>
</mxfile>